<svg xmlns="http://www.w3.org/2000/svg" width="24" height="21" viewBox="0 0 24 21">
  <g id="exclamation" transform="translate(0 -35.857)">
    <path id="Path_11" data-name="Path 11" d="M233.787,353.306a1.136,1.136,0,1,0,0,2.272,1.136,1.136,0,0,0,0-2.272Z" transform="translate(-221.765 -302.308)" fill="#d85151"/>
    <path id="Path_10" data-name="Path 10" d="M234.655,173.005c-.6,0-1.077.325-1.077.9,0,1.755.206,4.278.206,6.033,0,.457.4.649.87.649.354,0,.856-.192.856-.649,0-1.755.206-4.278.206-6.033A.948.948,0,0,0,234.655,173.005Z" transform="translate(-222.648 -130.607)" fill="#d85151"/>
    <path id="Path_9" data-name="Path 9" d="M23.69,53.53,13.846,36.918a2.137,2.137,0,0,0-3.693,0L.309,53.53a2.231,2.231,0,0,0-.031,2.212,2.153,2.153,0,0,0,1.877,1.115H21.844a2.153,2.153,0,0,0,1.877-1.115A2.23,2.23,0,0,0,23.69,53.53Zm-1.33,1.43a.593.593,0,0,1-.517.307H2.155a.593.593,0,0,1-.517-.307.614.614,0,0,1,.008-.609l9.844-16.612a.588.588,0,0,1,1.017,0l9.844,16.612A.614.614,0,0,1,22.361,54.96Z" fill="#d85151"/>
  </g>
</svg>
